/* XPM */
static char * qpcol_xpm[] = {
"32 32 220 2",
"  	c None",
". 	c #F7DFD8",
"+ 	c #F6DBD3",
"@ 	c #DE7D5E",
"# 	c #D5562D",
"$ 	c #CD3605",
"% 	c #CC3200",
"& 	c #D24A1F",
"* 	c #DB704E",
"= 	c #F4D5CB",
"- 	c #E1876A",
"; 	c #CC3403",
"> 	c #CC3504",
", 	c #E69A82",
"' 	c #FBEFEC",
") 	c #D35026",
"! 	c #EAAD9A",
"~ 	c #5E5E5E",
"{ 	c #474747",
"] 	c #3C3C3C",
"^ 	c #343434",
"/ 	c #D75F39",
"( 	c #D1491D",
"_ 	c #DF7F60",
": 	c #E69C84",
"< 	c #DC7250",
"[ 	c #D1471B",
"} 	c #1B1B1B",
"| 	c #141414",
"1 	c #000000",
"2 	c #E08264",
"3 	c #E18669",
"4 	c #E9A893",
"5 	c #EBB09D",
"6 	c #EBEBEB",
"7 	c #3B3B3B",
"8 	c #050505",
"9 	c #020202",
"0 	c #F8E2DC",
"a 	c #E38E73",
"b 	c #B5B5B5",
"c 	c #070707",
"d 	c #0A0A0A",
"e 	c #0D0D0D",
"f 	c #D04215",
"g 	c #DB6E4B",
"h 	c #DC7351",
"i 	c #616161",
"j 	c #282828",
"k 	c #191919",
"l 	c #E69C85",
"m 	c #DF8062",
"n 	c #D55931",
"o 	c #C7C7C7",
"p 	c #0C0C0C",
"q 	c #040404",
"r 	c #151515",
"s 	c #EEBDAD",
"t 	c #F7E1DA",
"u 	c #DD7757",
"v 	c #B3B3B3",
"w 	c #636363",
"x 	c #1F1F1F",
"y 	c #010101",
"z 	c #262626",
"A 	c #E08568",
"B 	c #D45228",
"C 	c #C5C5C5",
"D 	c #898989",
"E 	c #4D4D4D",
"F 	c #5B5B5B",
"G 	c #575757",
"H 	c #2A2625",
"I 	c #423430",
"J 	c #533E36",
"K 	c #402118",
"L 	c #492F27",
"M 	c #525252",
"N 	c #515151",
"O 	c #404040",
"P 	c #2C2C2C",
"Q 	c #2D2D2D",
"R 	c #131313",
"S 	c #080808",
"T 	c #D4552C",
"U 	c #DD7959",
"V 	c #BBBBBB",
"W 	c #3D3D3D",
"X 	c #373737",
"Y 	c #292929",
"Z 	c #4E4E4E",
"` 	c #1C1C1C",
" .	c #171717",
"..	c #161616",
"+.	c #464646",
"@.	c #5A5A5A",
"#.	c #181818",
"$.	c #414141",
"%.	c #3F3F3F",
"&.	c #CF4113",
"*.	c #DB9179",
"=.	c #8F8F8F",
"-.	c #393939",
";.	c #121212",
">.	c #363636",
",.	c #504D4C",
"'.	c #211B18",
").	c #242120",
"!.	c #353535",
"~.	c #383838",
"{.	c #CC3201",
"].	c #8E533F",
"^.	c #0B0B0B",
"/.	c #494848",
"(.	c #2F2522",
"_.	c #220800",
":.	c #350D00",
"<.	c #504947",
"[.	c #545454",
"}.	c #454545",
"|.	c #703C2B",
"1.	c #0F0F0F",
"2.	c #030303",
"3.	c #332724",
"4.	c #2F0B00",
"5.	c #421000",
"6.	c #63230F",
"7.	c #9F9F9F",
"8.	c #B0B0B0",
"9.	c #AFAFAF",
"0.	c #888888",
"a.	c #6C6C6C",
"b.	c #595959",
"c.	c #565656",
"d.	c #5C5C5C",
"e.	c #7C7C7C",
"f.	c #CD3808",
"g.	c #7B2E16",
"h.	c #212121",
"i.	c #202020",
"j.	c #242424",
"k.	c #272727",
"l.	c #3E3938",
"m.	c #2B0A00",
"n.	c #451100",
"o.	c #7A1E00",
"p.	c #C2816C",
"q.	c #E6E6E6",
"r.	c #D4D4D4",
"s.	c #C3C3C3",
"t.	c #B6B6B6",
"u.	c #BEBEBE",
"v.	c #DADADA",
"w.	c #D45229",
"x.	c #9C2701",
"y.	c #060606",
"z.	c #090909",
"A.	c #919090",
"B.	c #1A0600",
"C.	c #3F0F00",
"D.	c #761D00",
"E.	c #B93910",
"F.	c #D46946",
"G.	c #C83100",
"H.	c #100400",
"I.	c #080706",
"J.	c #933A1D",
"K.	c #E69E86",
"L.	c #C09182",
"M.	c #C43000",
"N.	c #360D00",
"O.	c #5A1600",
"P.	c #A12B05",
"Q.	c #D76945",
"R.	c #727272",
"S.	c #AE3711",
"T.	c #CE542C",
"U.	c #CDCDCD",
"V.	c #331A12",
"W.	c #B23006",
"X.	c #CB3200",
"Y.	c #B95939",
"Z.	c #F0E4E0",
"`.	c #7D7D7D",
" +	c #333333",
".+	c #070100",
"++	c #721C00",
"@+	c #BE2E00",
"#+	c #C43304",
"$+	c #9B2C08",
"%+	c #74554B",
"&+	c #C4C4C4",
"*+	c #101010",
"=+	c #120400",
"-+	c #330C00",
";+	c #380D00",
">+	c #23120D",
",+	c #626262",
"'+	c #6C3220",
")+	c #8E6456",
"!+	c #E1CFCA",
"~+	c #ABABAB",
"{+	c #4A332C",
"]+	c #CE3B0C",
"^+	c #D65B34",
"/+	c #DE7C5D",
"(+	c #E69D86",
"_+	c #535353",
":+	c #67220C",
"<+	c #CD3606",
"[+	c #BCBCBC",
"}+	c #6E6E6E",
"|+	c #3A3A3A",
"1+	c #8D381C",
"2+	c #D7603A",
"3+	c #FAEEEA",
"4+	c #F2CBBF",
"5+	c #E9A995",
"6+	c #D8643F",
"7+	c #D04214",
"                                                                ",
"                                                                ",
"                                                                ",
"                            .                                   ",
"                    + @ # $ % % & * =                           ",
"                  - ; % % % % % % % > ,                         ",
"              ' ) % % % % % % % % % % % !             ~ { ] ^ ^ ",
"              / % % % % ( _ : < % % % % [             } | 1 1 1 ",
"            2 % % % % 3         4 % % % % 5         6 7 8 1 9 9 ",
"          0 > % % % -             ( % % % a         b 7 c d e e ",
"          _ % % % f               g % % % h         i j k k k k ",
"          > % % % l               m % % % n       o { p q q r r ",
"        s % % % % t               u % % % /     v w x 1 1 y z z ",
"        A % % % B       C D E F G H I J K L M N O z P Q R S R R ",
"        T % % % U   V W X Y Z Y `  ...} +.@.X #.8 1 y 9 ` $.%.%.",
"        &.% % % *.=.-.Q 8 y 9 ;.x >.Y ,.'.).!.~.} ` x } Q $.Q Q ",
"        {.% % % ].w ^.y 1 1 1 y r /.(._.:.<.[.}.X ^ ~.z M Q { { ",
"        % % % % |.1.S 2.1 1 1 | E 3.4.5.6.7.8.9.7.0.a.b.c.d.e.e.",
"        f.% % % g.h.i.j.Y k.j i.l.m.n.o.p.        q.r.s.t.u.v.v.",
"        w.% % % x.c y.z.p S j.A.B.C.D.E.                        ",
"        F.% % % G.H.1 1 1 I.J.% % % % K.                        ",
"        L.% % % % M.o.N.O.P.% % % % Q.                          ",
"      6 R.S.% % % % % % % % % % % T.                            ",
"      U.!.V.W.% % % % % % % % X.Y.Z.                            ",
"      `. +y .+++@+% % % % #+$+%+&+                              ",
"      ] *+1 1 1 1 =+-+;+>+,+'+)+!+                              ",
"    ~+] S 1 1 1 1 1 1 1 @.{+% % % ]+^+/+(+                      ",
"    _+ +R | | | | | | ..^ :+% % % % % % <+                      ",
"    [+9.}+7 X ~.~.-.|+7 7 1+% % % % % % 2+                      ",
"                            3+4+5+- 6+7+l                       ",
"                                                                ",
"                                                                "};
